HIERARCHY
ROOT Hips
{
  OFFSET 147.187 94.3768 -79.4515
  CHANNELS 6 Xposition Yposition Zposition Zrotation Xrotation Yrotation
  JOINT RightUpLeg
  {
    OFFSET -8.9458 -8.66707 0.101652
    CHANNELS 3 Zrotation Xrotation Yrotation
    JOINT RightLeg
    {
      OFFSET 0 -44.4227 1.3727
      CHANNELS 3 Zrotation Xrotation Yrotation
      JOINT RightFoot
      {
        OFFSET 0.253549 -42.0924 -1.46059
        CHANNELS 3 Zrotation Xrotation Yrotation
        JOINT RightToes
        {
          OFFSET 0.04 -4.41509 8.4991
          CHANNELS 3 Zrotation Xrotation Yrotation
          End Site
          {
            OFFSET -0.08 -0.137448 9.77979
          }
        }
      }
    }
  }
  JOINT Spine
  {
    OFFSET 0 11.8905 0
    CHANNELS 3 Zrotation Xrotation Yrotation
    JOINT Spine1
    {
      OFFSET 0 25.6574 0.127663
      CHANNELS 3 Zrotation Xrotation Yrotation
      JOINT HEad
      {
        OFFSET 0 8.73416 0.011341
        CHANNELS 3 Zrotation Xrotation Yrotation
        End Site
        {
          OFFSET -0.29 12.7742 2.51395
        }
      }
      JOINT LeftShoulder1
      {
        OFFSET 8.99 -0.362252 -0.22
        CHANNELS 3 Zrotation Xrotation Yrotation
        JOINT LeftArm
        {
          OFFSET 10.2827 -0.00338 0.322123
          CHANNELS 3 Zrotation Xrotation Yrotation
          JOINT LeftForeArm
          {
            OFFSET 32.7669 0.099144 -1.42434
            CHANNELS 3 Zrotation Xrotation Yrotation
            JOINT LeftHand
            {
              OFFSET 27.5643 0.085362 1.02216
              CHANNELS 3 Zrotation Xrotation Yrotation
              End Site
              {
                OFFSET 16.7443 -0.6 1.50291
              }
            }
          }
        }
      }
      JOINT RightShoulder
      {
        OFFSET -8.99 -0.362252 -0.22
        CHANNELS 3 Zrotation Xrotation Yrotation
        JOINT RightArm
        {
          OFFSET -10.2827 -0.00338 0.322123
          CHANNELS 3 Zrotation Xrotation Yrotation
          JOINT RightForeArm
          {
            OFFSET -32.8971 0.099144 -1.42434
            CHANNELS 3 Zrotation Xrotation Yrotation
            JOINT RightHand
            {
              OFFSET -27.4921 0.085362 1.02216
              CHANNELS 3 Zrotation Xrotation Yrotation
              End Site
              {
                OFFSET -16.6312 -0.6 1.50291
              }
            }
          }
        }
      }
    }
  }
  JOINT LeftUpLeg
  {
    OFFSET 8.9458 -8.66707 0.101652
    CHANNELS 3 Zrotation Xrotation Yrotation
    JOINT LeftLeg
    {
      OFFSET 0 -44.4227 1.3727
      CHANNELS 3 Zrotation Xrotation Yrotation
      JOINT LeftFoot
      {
        OFFSET -0.253549 -42.0924 -1.46059
        CHANNELS 3 Zrotation Xrotation Yrotation
        JOINT LeftToes
        {
          OFFSET -0.04 -4.41509 8.4991
          CHANNELS 3 Zrotation Xrotation Yrotation
          End Site
          {
            OFFSET 0.08 -0.047448 9.77979
          }
        }
      }
    }
  }
}
MOTION
Frames:	22
Frame Time:	0.0166667
140.815 94.023 -84.257 3.71956 -0.481719 -111.319 -13.219 -11.1726 -3.90994 -9.7029 28.3299 14.5491 16.2025 -3.3259 -0.762247 -18.3616 -29.7704 -3.08039 0.586092 4.38917 5.41403 1.58223 8.75458 10.7913 -9.81428 -4.58112 21.8295 7.95139e-016 7.95139e-016 -0 -15.7808 -60.7039 12.9282 11.8227 35.5858 -120.713 34.7073 13.0024 14.6559 9.28892 2.34053 15.6578 74.8672 -15.729 39.986 -7.42151 49.4972 129.005 -22.2348 15.264 -32.6587 23.2248 -20.1602 1.69393 -6.4106 39.2627 5.10903 -7.42972 -8.86321 -0.0410163 1.27475 -1.32298 5.95267 
140.553 94.4672 -83.5042 4.1454 -0.0815889 -113.538 -12.4313 -11.3081 -2.23821 -10.3913 26.288 16.1019 18.2574 -2.99331 -0.893141 -16.6961 -27.1275 -3.64652 0.643671 4.32906 4.76136 2.05744 8.65921 9.42055 -8.88285 -4.6148 23.6279 0 4.77083e-015 -0 -2.97403 -63.6977 24.2533 15.8731 36.4041 -117.721 35.2146 14.2989 18.7393 9.24181 2.4617 16.6632 73.9609 -16.4201 40.3197 -4.71485 51.385 126.301 -22.5667 15.0803 -31.3063 24.1871 -19.0695 1.19479 -8.51818 37.7948 6.26739 -7.73394 -7.0808 0.0664633 3.88264 -4.59625 4.44537 
140.303 94.86 -82.8994 4.59388 0.50025 -114.622 -12.3311 -11.4488 -1.79736 -9.59967 25.1662 16.0773 19.8359 -2.74547 -1.00099 -14.6472 -24.4642 -2.03992 0.67011 4.39532 4.03076 2.6219 8.81306 7.89534 -8.29782 -5.86694 24.6806 1.59028e-015 1.78906e-015 -1.59028e-015 7.83142 -68.1595 31.9619 18.9108 40.5721 -110.47 34.9432 15.8608 23.9871 9.20786 2.49433 16.9625 73.787 -18.4646 41.1789 -4.09837 53.9356 125.574 -22.9572 15.1232 -31.0514 24.2547 -18.5055 1.56923 -7.09049 36.5591 7.02592 -7.72939 -4.21149 0.243666 5.74847 -7.15834 2.67693 
139.932 95.1333 -82.3721 5.52352 1.46291 -114.613 -11.8339 -11.4702 -2.57046 -8.29637 24.2576 16.0797 18.3739 -0.954462 -1.21346 -14.4057 -23.9487 -2.62556 1.01757 4.16052 2.9908 3.8192 8.35831 5.74812 -7.36889 -4.66822 26.5295 -2.75869e-031 -1.98785e-015 -7.95139e-015 1.77467 -66.2424 20.829 13.2333 37.832 -89.5151 30.8775 15.3565 24.8566 8.48796 2.43069 17.4319 74.0429 -18.2086 41.7351 -1.70501 54.8669 122.954 -24.4495 15.1835 -29.6643 24.6976 -18.5068 1.418 -5.66668 36.0018 5.56696 -8.03671 -4.91404 0.207794 5.57319 -6.76112 3.80461 
139.533 95.2761 -81.8612 6.26067 2.31354 -114.147 -11.6805 -11.8789 -3.76998 -7.22532 24.8454 16.1203 19.5129 -3.128 -0.923536 -10.3943 -17.8779 -1.26007 1.65636 3.91761 1.97969 4.64238 7.85971 3.73184 -7.4048 -3.79672 28.2614 -4.77083e-015 0 3.18055e-015 -12.2163 -47.1707 -1.92995 4.90943 13.8095 -56.5556 29.2231 13.5658 18.9893 8.70939 2.52071 17.853 73.3605 -16.7335 42.4223 -3.58469 52.2929 123.87 -21.9167 15.019 -31.8025 25.1574 -18.5007 0.656613 -5.18373 35.7651 4.61097 -8.97516 -7.62736 0.0328769 3.71947 -4.361 4.76628 
139.221 95.2713 -81.4446 6.4419 3.35308 -114.006 -11.1594 -12.2251 -4.28317 -6.88456 26.2829 16.2153 20.0711 -4.69239 -0.679711 -7.37259 -12.9641 -0.365059 2.02828 3.79032 1.26949 5.24561 7.58641 2.29666 -7.26058 -2.57531 29.5591 1.59028e-015 1.19271e-015 -3.18055e-015 -11.9403 -29.4779 -10.3546 9.65129 -4.19174 -33.6739 32.193 12.0751 12.179 8.94722 2.70148 18.9566 74.4379 -19.5195 42.3714 -6.30387 54.3043 126.763 -23.5961 15.4053 -31.6774 25.4533 -17.4784 0.578258 -4.00561 34.5206 4.35091 -8.23065 -7.7478 0.0246804 4.78327 -5.68816 4.51213 
138.864 95.3571 -81.0074 6.34414 3.41645 -114.01 -11.4725 -12.714 -5.34669 -7.18428 27 16.5992 20.2901 -2.55951 -1.0531 -8.80631 -15.3723 -0.245929 1.89197 3.66755 1.02291 4.88091 7.33077 1.82287 -6.32563 -1.46487 30.0953 -7.95139e-016 3.97569e-016 6.36111e-015 -8.29777 -26.3783 -10.095 4.42472 -7.34213 -28.6722 35.4977 12.5216 12.8444 9.58442 2.81419 18.9134 74.5713 -18.8566 42.3815 -10.0044 52.2997 130.414 -21.543 15.6332 -35.5213 24.4574 -16.2903 0.59361 -2.74136 33.0333 4.10198 -7.97414 -8.54234 -0.02618 5.03806 -6.01895 4.37231 
138.548 95.3971 -80.7644 6.42219 3.93941 -114.14 -11.1075 -13.4327 -4.48041 -6.88734 28.6533 15.3465 21.3721 -2.15997 -1.17553 -7.86811 -13.7734 -0.833281 1.82077 3.57758 1.39671 5.06487 7.1779 2.54249 -7.74236 -2.20369 28.9904 7.95139e-016 -4.37326e-015 -3.18055e-015 -8.21834 -26.1584 -11.7559 2.99705 -10.7303 -27.0783 33.3104 11.9854 11.5834 9.30172 2.71033 18.5157 75.1753 -17.837 41.9808 -12.9978 48.9636 133.752 -17.585 15.2905 -40.3504 24.6964 -15.2102 0.524239 -2.68675 31.8925 4.9044 -8.07983 -9.79652 -0.109004 4.55368 -5.57479 3.24405 
138.158 95.3375 -80.672 6.54447 4.09404 -113.008 -11.4146 -13.8506 -4.79575 -5.86861 30.0879 13.1764 20.2611 -0.387837 -1.42413 -9.55929 -16.3917 -2.57589 1.53384 3.4605 1.50307 4.83258 6.93568 2.74955 -8.04607 -1.96706 28.2599 -7.95139e-016 0 -0 -11.3993 -32.424 -13.6969 1.48121 -13.5497 -34.6495 27.2909 12.2956 14.6428 9.57792 2.81436 18.9239 73.7676 -14.0657 41.3553 -14.5497 42.4415 134.412 -15.3066 15.0327 -43.771 24.1866 -15.2123 0.625745 -1.43367 31.3291 3.52044 -7.97227 -10.6229 -0.160345 4.23277 -5.1741 3.24354 
137.726 95.3767 -80.6607 6.0851 3.98127 -111.517 -12.3563 -13.6409 -4.09411 -3.9365 31.7963 10.2934 18.5973 0.581534 -1.467 -10.0753 -17.1096 -3.47093 1.28683 3.62384 1.82721 3.95661 7.24585 3.44238 -7.76957 -2.52263 26.1821 7.95139e-016 -3.18055e-015 3.18055e-015 -14.5596 -39.2088 -14.9585 -3.74076 -11.6557 -41.9082 24.8641 11.1606 10.3227 9.87597 2.88176 19.0133 74.2045 -14.8353 40.7423 -15.55 41.6052 136.062 -15.5717 15.136 -43.8396 23.5508 -14.9928 0.855514 -0.72803 30.7212 1.91722 -8.13712 -10.0754 -0.128503 5.19943 -6.49023 2.51279 
137.372 95.3319 -80.7465 5.79175 4.22965 -108.89 -12.712 -13.196 -3.35383 -2.14804 33.5431 6.51727 18.3032 0.747397 -1.47079 -9.54854 -16.1946 -4.48503 1.36253 3.67112 1.96114 3.63306 7.32522 3.76942 -7.671 -2.09103 24.9125 7.95139e-016 -2.5842e-015 -0 -18.0602 -45.0289 -15.6375 -9.99241 -4.92757 -49.9031 26.1814 10.0406 4.9622 9.26191 2.74785 18.8629 75.4305 -16.5816 40.1432 -15.7707 41.6801 137.109 -15.1276 14.9842 -43.8765 23.5531 -15.7348 0.433214 -0.539516 30.7193 -0.250027 -8.67419 -9.08679 -0.0701036 6.68678 -8.45931 2.04187 
137.062 95.3306 -80.9148 5.20177 4.13949 -106.109 -13.6687 -12.4917 -1.77506 0.880751 35.0817 1.99873 15.9443 2.76237 -1.56101 -11.3863 -19.0347 -4.18545 0.918479 3.80561 2.16109 2.78564 7.58567 4.20039 -7.80637 -2.18701 22.2261 3.97569e-016 -5.01931e-015 4.77083e-015 -22.5418 -54.093 -16.5946 -14.2042 8.29681 -58.646 27.4954 9.59091 3.0111 9.27959 2.75385 18.884 76.1858 -19.7329 39.3876 -15.6137 43.4008 138.488 -15.5129 15.0321 -43.2522 23.1853 -16.1974 1.40062 0.167849 29.9537 -2.76704 -8.32966 -6.18818 0.129465 9.27504 -12.239 0.1266 
136.635 95.2836 -81.1297 4.74833 4.40395 -103.368 -13.8475 -12.1244 -0.859465 2.35101 37.0824 -0.957655 16.2419 2.58605 -1.56474 -9.83257 -16.8068 -2.74976 0.762445 4.01443 2.54498 2.16397 7.99814 5.02407 -7.12872 -2.19002 19.9924 -7.06915e-032 -5.09386e-015 -7.95139e-016 -31.3946 -66.0202 -21.2584 -16.5207 26.1072 -66.3059 30.2718 9.50488 2.80724 9.38047 2.73489 18.5946 76.2099 -20.7406 38.6705 -16.4391 42.5493 139.269 -16.0716 15.1748 -42.8995 23.5831 -16.6671 1.57694 -0.34683 29.8898 -4.76371 -7.3917 -6.15137 0.119479 9.08348 -12.0847 -0.264947 
136.157 95.2278 -81.3624 4.16148 4.22594 -100.569 -14.6581 -11.3248 -0.067698 4.39983 38.1651 -3.01192 14.3441 6.79038 -1.8893 -14.3025 -23.3289 -4.62949 0.41767 4.14122 2.87782 1.48455 8.24534 5.71305 -6.75578 -0.928084 18.0976 1.98785e-016 1.53437e-015 -7.95139e-016 -47.4139 -76.2218 -31.688 -15.0859 43.1229 -75.4166 34.3701 9.38342 2.59209 9.48668 2.76746 18.6952 76.2186 -22.0349 37.8645 -15.8158 42.6912 139.607 -16.3357 15.249 -42.7857 23.1333 -16.7022 2.01225 -0.0502945 29.0402 -7.35734 -6.93458 -5.98418 0.122577 9.44039 -12.6459 -0.597263 
135.639 95.1133 -81.5833 3.78747 4.30624 -97.8547 -15.1229 -10.7699 0.390017 6.11984 39.3655 -4.96552 13.1854 10.7205 -2.166 -17.7035 -28.307 -4.61445 0.148833 4.06658 3.26144 0.913037 8.08676 6.51089 -6.38385 -0.450322 16.0702 3.97569e-016 2.82647e-015 1.98785e-016 -64.3637 -79.7579 -43.8429 -8.61886 51.9795 -88.7472 35.6362 10.4034 5.95086 10.036 2.90018 18.9292 75.5907 -23.7935 36.4617 -15.9022 42.1459 140.073 -16.5454 15.3002 -42.6469 22.5858 -16.8499 2.99947 1.49503 28.4777 -11.5004 -6.54153 -7.50498 0.0385607 8.43637 -11.1689 -0.0290651 
135.134 95.0475 -81.8499 3.50834 4.07773 -95.2188 -15.7136 -10.5694 0.283475 7.05166 41.3047 -4.76023 12.6989 11.7777 -2.19715 -17.9987 -28.9519 -3.93681 -0.0432182 4.22819 3.85001 0.40389 8.38834 7.758 -7.01646 -0.272699 13.261 -2.96559e-032 -2.13694e-015 -7.95139e-016 -57.8085 -71.8401 -34.6456 -0.622059 47.2734 -100.567 38.1902 10.7924 6.99835 9.66647 2.6532 17.583 75.891 -23.6941 35.9209 -16.4801 41.0095 140.889 -16.674 15.289 -42.2827 21.7326 -16.9375 3.2512 2.65662 27.5264 -14.5611 -6.1237 -8.09328 0.00984008 8.05416 -10.5847 0.317389 
134.705 94.9948 -82.1725 3.06453 4.09446 -92.7737 -15.8946 -10.1482 0.388357 7.80532 42.8268 -4.66737 11.6402 12.7307 -2.10671 -18.4286 -29.5556 -4.00306 -0.197961 4.29904 4.31577 -0.0876543 8.52071 8.7399 -7.14648 -0.0959909 11.5487 7.95139e-016 -8.94531e-015 -1.59028e-015 -57.4933 -66.7303 -31.5137 2.97124 44.4731 -108.552 38.9822 10.6717 6.58441 10.2891 2.71839 17.2719 75.3613 -24.2195 35.2489 -15.2302 41.082 140.801 -16.8899 15.4004 -42.5316 21.109 -16.8498 3.39815 3.9021 26.3908 -17.0884 -5.8912 -7.19996 0.051653 9.06141 -11.9311 0.230871 
134.336 94.8505 -82.6331 2.79358 4.0754 -90.0996 -16.3478 -9.71391 0.556503 9.43418 44.0924 -5.03166 10.9376 12.0975 -1.92518 -19.6927 -31.6367 -3.31687 -0.519193 4.325 4.47332 -0.435324 8.5369 9.06086 -7.52793 0.60884 10.8011 -7.95139e-016 -4.57205e-015 -1.59028e-015 -56.2079 -60.9842 -27.7336 5.58625 40.107 -114.615 39.3722 10.6708 6.55707 11.0072 2.91054 17.7522 74.3701 -25.3406 34.5288 -15.7447 40.7383 141.097 -17.9789 15.5515 -41.1783 20.8206 -17.4501 3.38968 4.54724 25.7762 -18.7343 -5.96209 -5.56303 0.127723 10.8055 -14.5765 -0.958408 
133.939 94.6736 -83.1531 2.12082 3.62179 -87.7201 -16.9894 -9.08639 0.815391 10.3157 45.562 -4.78234 9.68012 8.0904 -1.39761 -16.9916 -27.7096 -3.16911 -0.691432 4.50638 4.7599 -1.01543 8.88476 9.69742 -7.12612 0.438747 9.21617 2.64834e-031 -2.38542e-015 6.36111e-015 -57.472 -56.3911 -26.4839 8.05977 37.0514 -119.539 39.0675 10.6905 6.63389 11.5864 3.06707 18.1178 73.842 -25.872 33.7958 -15.6166 39.4951 141.442 -16.1738 15.1068 -42.1967 20.2051 -17.4988 3.19121 4.81113 25.4951 -20.5236 -5.41734 -4.83148 0.147975 11.5844 -15.5489 -0.724198 
133.611 94.5271 -83.6368 1.74358 3.29783 -85.6837 -17.5578 -8.83006 1.76616 11.8644 46.4323 -6.59548 9.29505 3.48258 -1.00331 -13.1097 -22.0908 -1.94388 -0.974555 4.76394 5.13751 -1.40077 9.36112 10.472 -7.33552 0.0796903 7.8614 -0 -2.78299e-015 -0 -59.0459 -51.1364 -26.1472 10.3478 32.5865 -123.268 39.309 11.1532 7.96364 11.1339 2.91151 17.6062 74.5945 -25.928 33.9128 -15.5128 39.1543 141.949 -15.1644 14.8316 -42.6762 19.7238 -17.7805 2.50535 4.96906 25.5434 -22.31 -5.08505 -5.88945 0.0989897 10.3095 -13.6818 -0.153339 
133.324 94.2571 -84.1698 1.32034 3.23063 -83.7321 -17.9238 -8.33977 2.47549 13.2039 46.4204 -8.68433 9.11681 -1.22459 -0.643556 -9.91832 -16.8154 -3.94785 -1.07552 4.96314 5.33739 -1.45379 9.74791 10.8197 -7.47469 -0.424307 7.10916 1.59028e-015 -2.38542e-015 9.54166e-015 -60.4317 -47.5252 -25.7139 12.3473 29.7672 -126.046 40.8382 11.4596 8.66782 11.772 3.05036 17.7883 74.0163 -26.412 33.6456 -15.0228 40.5642 142.15 -17.645 15.5263 -41.7084 19.0848 -18.0103 3.20103 6.86013 25.0249 -24.6545 -5.1184 -4.75023 0.143699 11.7752 -15.9712 -1.24551 
133.079 93.9511 -84.8065 0.990653 2.88544 -81.8013 -18.2752 -7.66841 2.25761 12.8182 45.6658 -10.1465 8.60791 -2.9416 -0.497054 -9.77446 -16.6761 -3.12924 -1.45822 5.06155 5.39381 -1.86282 9.89978 10.8882 -7.69726 0.463335 6.98709 1.59028e-015 -7.95139e-016 6.36111e-015 -61.4221 -44.9717 -25.3857 12.8991 27.8934 -128.119 41.0102 11.8126 9.62836 12.1998 3.22995 18.4578 74.082 -26.6546 33.4039 -15.8035 39.917 142.473 -18.0859 15.6646 -41.6533 18.3091 -18.4416 2.88756 8.15681 25.0959 -26.9572 -5.36649 -5.70211 0.111049 10.9773 -14.7111 -0.63843 
